# xmcd CD database file
#
# Track frame offsets:
#	150
#	21510
#	37460
#	59443
#	79013
#	96732
#	118096
#	136880
#	153610
#	173654
#	195130
#	213465
#
# Disc length: 3073 seconds
#
# Revision: 0
# Processed by: cddbd v1.5.2PL0 Copyright (c) Steve Scherf et al.
# Submitted via: cdripper 1.0.8
#
DISCID=ae0bff0c
DTITLE=Adama Drame - 40th  Anniversaire
DYEAR=2006
DGENRE=Merengue
TTITLE0=Kolagnini
TTITLE1=Bissimilayi
TTITLE2=N'na
TTITLE3=Malala
TTITLE4=Djeli
TTITLE5=Djeliya
TTITLE6=San Binani
TTITLE7=40 ans
TTITLE8=Tolon
TTITLE9=Zoulou Bou Zalaba
TTITLE10=Mohamed
TTITLE11=Solo de djembe
EXTD=YEAR: 2006
EXTT0=
EXTT1=
EXTT2=
EXTT3=
EXTT4=
EXTT5=
EXTT6=
EXTT7=
EXTT8=
EXTT9=
EXTT10=
EXTT11=
PLAYORDER=
